<svg id="Layer_1" data-name="Layer 1" xmlns="http://www.w3.org/2000/svg" viewBox="0 0 1024 1024"><defs><style>.cls-1{fill:#fff;}.cls-2{fill:#39b54a;}.cls-3{fill:red;}.cls-4{fill:#22b573;}</style></defs><title>Artboard 2</title><path class="cls-1" d="M138.1,498.82c0,.1.05.2.08.3.34,1.17.68,2.35,1,3.52C138.84,501.38,138.47,500.1,138.1,498.82Zm8,24.68.6,1.67h0C146.5,524.63,146.3,524.07,146.1,523.5Zm731.19,1.67h0l.6-1.67C877.7,524.07,877.5,524.63,877.29,525.18Zm7.49-22.53c.36-1.17.7-2.35,1-3.52,0-.1.06-.2.08-.3C885.53,500.1,885.16,501.38,884.78,502.64Z"/><path d="M973.32,462C948.4,229.25,751.37,48,512,48S75.6,229.25,50.68,462a468.48,468.48,0,0,0,.1,101q1.8,16.41,4.72,32.47C94.81,811.9,284.24,976,512,976c239,0,435.83-180.73,461.22-413A466.85,466.85,0,0,0,976,512v-.5A465.13,465.13,0,0,0,973.32,462ZM885.4,620.15c0,.1-.05.2-.08.3-.34,1.17-.68,2.35-1,3.52q-1.92,6.46-4.08,12.85c-.42,1.25-.85,2.51-1.29,3.75,0,.11-.07.22-.11.33-.46,1.32-.93,2.63-1.4,3.93l-.6,1.67h0c-.26.72-.52,1.44-.8,2.16a3.74,3.74,0,0,1-.16.43c-.49,1.32-1,2.63-1.5,3.94-.36.92-.71,1.83-1.08,2.75q-1.86,4.73-3.86,9.38c-.57,1.33-1.15,2.67-1.73,4q-1,2.33-2.08,4.62c-.45,1-.92,2-1.4,3-.07.17-.15.35-.24.52-.56,1.21-1.14,2.42-1.71,3.62-.43.9-.87,1.8-1.31,2.69l-1,2.06c-.51,1-1,2.07-1.56,3.1L856.69,692q-3.48,6.67-7.21,13.19c-.47.83-.94,1.65-1.42,2.47q-1.79,3.09-3.64,6.13c-.43.72-.87,1.44-1.31,2.15s-1,1.61-1.5,2.41q-5.61,9-11.7,17.65c-.74,1.06-1.49,2.11-2.24,3.15s-1.36,1.89-2,2.83l-.37.5c-.71,1-1.43,1.94-2.15,2.9L821,748.14c-1,1.28-2,2.56-3,3.82-.67.87-1.36,1.73-2,2.59q-2.39,3-4.81,5.93c-1.68,2-3.37,4-5.08,6l-2,2.31-.73.83c-.56.63-1.12,1.27-1.69,1.9-1.12,1.26-2.26,2.52-3.41,3.76-.78.87-1.59,1.74-2.41,2.61s-1.74,1.87-2.64,2.8-1.76,1.86-2.67,2.78q-2.67,2.76-5.42,5.48l-.24.24q-2.62,2.59-5.29,5.12c-.93.9-1.87,1.78-2.81,2.65s-1.88,1.76-2.83,2.61l-2.51,2.28-.71.64c-.84.74-1.67,1.49-2.52,2.23s-1.93,1.7-2.9,2.53-1.95,1.68-2.94,2.5-2,1.67-3,2.49q-3,2.45-6,4.85t-6.09,4.74c-1,.79-2,1.57-3.08,2.33s-2.06,1.54-3.1,2.3q-4.55,3.35-9.2,6.54c-1.14.79-2.29,1.57-3.44,2.34l-3.22,2.15c-.91.61-1.83,1.21-2.75,1.79-1.24.81-2.5,1.61-3.76,2.4-.8.52-1.61,1-2.42,1.52-.53.34-1.06.66-1.59,1-.86.54-1.72,1.06-2.58,1.57s-1.84,1.12-2.77,1.66-2,1.18-3,1.75c-1.24.73-2.49,1.44-3.75,2.15s-2.51,1.42-3.78,2.11c-.77.43-1.55.85-2.33,1.27q-4,2.19-8.12,4.28-1.34.69-2.67,1.35c-.38.2-.75.39-1.13.57-1.05.53-2.11,1.05-3.17,1.56s-2.11,1-3.17,1.53l-.67.32-3.2,1.49q-7.08,3.29-14.31,6.27c-1.21.5-2.42,1-3.63,1.48q-2.11.86-4.23,1.68l-2.64,1-2.73,1-2.7,1c-1.65.59-3.3,1.18-5,1.75-1.36.48-2.72.94-4.09,1.4-1,.33-1.93.65-2.9,1l-1.63.53c-2.68.86-5.36,1.69-8.06,2.49-1.3.39-2.62.78-3.93,1.15-1.62.46-3.24.92-4.86,1.35-1.22.34-2.45.67-3.68,1-1.68.45-3.35.87-5,1.29-1.28.32-2.57.63-3.86.93-1,.24-2,.48-3,.7q-5,1.16-10,2.15l-4.27.83q-2.79.53-5.58,1l-3,.52-.68.11c-1.35.22-2.7.44-4.06.64-1.06.17-2.13.33-3.21.47-.91.14-1.83.27-2.75.39q-1.93.27-3.87.51-6.27.8-12.6,1.39-2.25.21-4.53.39c-1.4.12-2.8.22-4.2.32l-.91.07-3.75.23-.73,0-3,.15-2.55.12c-1.2.06-2.41.1-3.61.14s-2.28.08-3.43.1c-1.77,0-3.55.08-5.33.1-1.54,0-3.09,0-4.63,0s-3.09,0-4.63,0c-1.78,0-3.56,0-5.33-.1-1.15,0-2.29-.06-3.43-.1s-2.41-.08-3.61-.14L492,901l-3-.15-.73,0-3.75-.23-.91-.07c-1.4-.1-2.8-.2-4.2-.32s-3-.25-4.53-.39q-6.33-.6-12.6-1.39-1.94-.24-3.87-.51c-.92-.12-1.84-.25-2.75-.39-1.08-.14-2.15-.3-3.21-.47-1.36-.2-2.71-.42-4.06-.64l-.68-.11-3-.52q-2.79-.48-5.58-1l-4.27-.83q-5-1-10-2.15c-1-.22-2-.46-3-.7-1.29-.3-2.58-.61-3.86-.93-1.69-.42-3.36-.84-5-1.29-1.23-.31-2.46-.64-3.68-1-1.62-.43-3.24-.89-4.86-1.35-1.31-.37-2.63-.76-3.93-1.15-2.7-.8-5.38-1.63-8.06-2.49l-1.63-.53c-1-.31-1.93-.63-2.9-1-1.37-.46-2.73-.92-4.09-1.4-1.65-.57-3.3-1.16-5-1.75l-2.7-1-2.73-1-2.64-1q-2.11-.82-4.23-1.68c-1.21-.48-2.42-1-3.63-1.48q-7.23-3-14.31-6.27l-3.2-1.49-.67-.32c-1.06-.51-2.12-1-3.17-1.53s-2.12-1-3.17-1.56c-.38-.18-.75-.37-1.13-.57q-1.33-.66-2.67-1.35-4.09-2.09-8.12-4.28c-.78-.42-1.56-.84-2.33-1.27-1.27-.69-2.53-1.4-3.78-2.11s-2.51-1.42-3.75-2.15c-1-.57-2-1.16-3-1.75s-1.85-1.09-2.77-1.66-1.72-1-2.58-1.57c-.53-.32-1.06-.64-1.59-1-.81-.49-1.62-1-2.42-1.52-1.26-.79-2.52-1.59-3.76-2.4-.92-.58-1.84-1.18-2.75-1.79l-3.22-2.15c-1.15-.77-2.3-1.55-3.44-2.34q-4.65-3.2-9.2-6.54c-1-.76-2.07-1.52-3.1-2.3s-2.06-1.54-3.08-2.33q-3.07-2.32-6.09-4.74t-6-4.85c-1-.82-2-1.65-3-2.49s-2-1.65-2.94-2.5-1.94-1.67-2.9-2.53-1.68-1.49-2.52-2.23l-.71-.64L249,799.58c-1-.85-1.89-1.73-2.83-2.61s-1.88-1.75-2.81-2.65q-2.67-2.52-5.29-5.12l-.24-.24q-2.75-2.71-5.42-5.48c-.91-.92-1.8-1.85-2.67-2.78s-1.78-1.86-2.64-2.8-1.63-1.74-2.41-2.61c-1.15-1.24-2.29-2.5-3.41-3.76-.57-.63-1.13-1.27-1.69-1.9l-.73-.83-2-2.31c-1.71-2-3.4-4-5.08-6s-3.22-3.94-4.81-5.93c-.68-.86-1.37-1.72-2-2.59-1-1.26-2-2.54-3-3.82l-2.07-2.75c-.72-1-1.44-1.93-2.15-2.9l-.37-.5c-.69-.94-1.37-1.88-2-2.83s-1.5-2.09-2.24-3.15q-6.09-8.66-11.7-17.65c-.51-.8-1-1.6-1.5-2.41s-.88-1.43-1.31-2.15q-1.86-3-3.64-6.13c-.48-.82-1-1.64-1.42-2.47q-3.73-6.51-7.21-13.19l-1.65-3.21c-.53-1-1-2.06-1.56-3.1l-1-2.06c-.44-.89-.88-1.79-1.31-2.69-.57-1.2-1.15-2.41-1.71-3.62-.09-.17-.17-.35-.24-.52-.48-1-1-2-1.4-3q-1.06-2.29-2.08-4.62c-.58-1.32-1.16-2.66-1.73-4q-2-4.65-3.86-9.38c-.37-.92-.72-1.83-1.08-2.75-.51-1.31-1-2.62-1.5-3.94a3.74,3.74,0,0,1-.16-.43c-.28-.72-.54-1.44-.8-2.16h0l-.6-1.67c-.48-1.31-.94-2.62-1.4-3.93,0-.11-.08-.22-.11-.33-.44-1.24-.87-2.5-1.29-3.75q-2.16-6.37-4.08-12.85c-.36-1.17-.7-2.35-1-3.52,0-.1-.06-.2-.08-.3A45,45,0,0,1,180.94,563H390.59a131.05,131.05,0,0,0,241.82,0H842.06A45,45,0,0,1,885.4,620.15ZM425.5,512.5c0-.33,0-.67,0-1a86,86,0,0,1,172,0c0,.33,0,.67,0,1a86,86,0,1,1-172,0ZM842.06,462H632.41a131.05,131.05,0,0,0-241.82,0H180.94a45,45,0,0,1-43.34-57.15c0-.1.05-.2.08-.3.34-1.17.68-2.35,1-3.52q1.92-6.46,4.08-12.85c.42-1.25.85-2.51,1.29-3.75,0-.11.07-.22.11-.33.46-1.31.92-2.62,1.4-3.93s.93-2.56,1.41-3.83a3.75,3.75,0,0,1,.16-.43c.49-1.32,1-2.63,1.5-3.94.36-.92.71-1.83,1.08-2.75q1.86-4.72,3.86-9.38c.57-1.33,1.15-2.67,1.73-4q1-2.32,2.08-4.62c.45-1,.92-2,1.4-3,.1-.23.2-.46.32-.69.54-1.15,1.08-2.31,1.63-3.45.43-.9.87-1.8,1.31-2.69l1-2.06c.51-1,1-2.07,1.56-3.1l1.65-3.21q3.48-6.68,7.21-13.19c.46-.82.94-1.64,1.42-2.46q1.79-3.09,3.64-6.14c.43-.72.87-1.44,1.31-2.15s1-1.61,1.5-2.41q5.61-9,11.7-17.65c.74-1.06,1.49-2.11,2.24-3.15s1.36-1.89,2-2.83l.37-.5c.71-1,1.43-1.94,2.15-2.9l2.07-2.75c1-1.28,2-2.56,3-3.82.67-.87,1.36-1.73,2-2.59q2.39-3,4.81-5.93c1.68-2,3.37-4,5.08-6l2-2.31.73-.83c.56-.63,1.12-1.27,1.69-1.9,1.12-1.26,2.26-2.52,3.41-3.76.78-.87,1.59-1.74,2.41-2.61s1.74-1.87,2.64-2.8,1.76-1.86,2.67-2.78l2.7-2.75c.9-.91,1.81-1.83,2.72-2.73.08-.08.16-.15.24-.24q2.63-2.59,5.29-5.12c.93-.9,1.87-1.78,2.81-2.65s1.88-1.76,2.83-2.61l2.51-2.28.71-.64c.84-.74,1.67-1.49,2.52-2.23s1.93-1.7,2.9-2.53,1.95-1.68,2.94-2.5,2-1.67,3-2.49q3-2.45,6-4.85t6.09-4.74c1-.79,2-1.57,3.08-2.33s2.06-1.54,3.1-2.3q4.55-3.34,9.2-6.54c1.14-.79,2.29-1.57,3.44-2.34l3.22-2.15c.91-.61,1.83-1.21,2.75-1.79,1.24-.81,2.5-1.61,3.76-2.4.8-.52,1.61-1,2.42-1.52.53-.34,1.06-.66,1.59-1,.86-.54,1.72-1.06,2.58-1.57s1.84-1.12,2.77-1.66,2-1.18,3-1.75c1.24-.73,2.49-1.44,3.75-2.15s2.51-1.42,3.78-2.11c.77-.43,1.55-.85,2.33-1.27q4-2.19,8.12-4.28l2.67-1.35c.38-.2.75-.39,1.13-.57,1.05-.53,2.11-1,3.17-1.56s2.11-1,3.17-1.53l.67-.32,3.2-1.49q7.08-3.29,14.31-6.27c1.21-.5,2.42-1,3.63-1.48l4.23-1.68,2.64-1q1.36-.53,2.73-1l2.7-1c1.65-.59,3.3-1.18,5-1.75,1.36-.48,2.72-.94,4.09-1.4,1-.33,1.93-.65,2.9-1l1.63-.53c2.68-.86,5.36-1.69,8.06-2.49,1.3-.39,2.62-.78,3.93-1.15,1.62-.46,3.24-.92,4.86-1.35,1.22-.34,2.45-.67,3.68-1,1.68-.45,3.35-.87,5-1.29,1.28-.32,2.57-.63,3.86-.93,1-.24,2-.48,3-.7q5-1.15,10-2.15l4.27-.83q2.79-.52,5.58-1l3-.52.68-.11c1.35-.22,2.7-.44,4.06-.64,1.06-.17,2.13-.33,3.21-.47.91-.14,1.83-.27,2.75-.39l3.87-.51q6.27-.79,12.6-1.39,2.25-.21,4.53-.39c1.4-.12,2.8-.22,4.2-.32l.91-.07,3.75-.23.73,0q1.48-.09,3-.15,1.27-.07,2.55-.12c1.2-.06,2.41-.1,3.61-.14s2.28-.08,3.43-.1c1.77-.05,3.55-.08,5.33-.1l4.63,0,4.63,0c1.78,0,3.56,0,5.33.1,1.15,0,2.29.06,3.43.1s2.41.08,3.61.14q1.27,0,2.55.12,1.48.06,3,.15l.73,0,3.75.23.91.07c1.4.1,2.8.2,4.2.32s3,.25,4.53.39q6.33.6,12.6,1.39l3.87.51c.92.12,1.84.25,2.75.39,1.08.14,2.15.3,3.21.47,1.36.2,2.71.42,4.06.64l.68.11,3,.52q2.79.48,5.58,1l4.27.83q5,1,10,2.15c1,.22,2,.46,3,.7,1.29.3,2.58.61,3.86.93,1.69.42,3.36.84,5,1.29,1.23.31,2.46.64,3.68,1,1.62.43,3.24.89,4.86,1.35,1.31.37,2.63.76,3.93,1.15,2.7.8,5.38,1.63,8.06,2.49l1.63.53c1,.31,1.93.63,2.9,1,1.37.46,2.73.92,4.09,1.4,1.65.57,3.3,1.16,5,1.75l2.7,1q1.36.5,2.73,1l2.64,1,4.23,1.68c1.21.48,2.42,1,3.63,1.48q7.23,3,14.31,6.27l3.2,1.49.67.32c1.06.51,2.12,1,3.17,1.53s2.12,1,3.17,1.56c.38.18.75.37,1.13.57l2.67,1.35q4.09,2.09,8.12,4.28c.78.42,1.56.84,2.33,1.27,1.27.69,2.53,1.4,3.78,2.11s2.51,1.42,3.75,2.15c1,.57,2,1.16,3,1.75s1.85,1.09,2.77,1.66,1.72,1,2.58,1.57c.53.32,1.06.64,1.59,1,.81.49,1.62,1,2.42,1.52,1.26.79,2.52,1.59,3.76,2.4.92.58,1.84,1.18,2.75,1.79l3.22,2.15c1.15.77,2.3,1.55,3.44,2.34q4.65,3.2,9.2,6.54c1,.76,2.07,1.52,3.1,2.3s2.06,1.54,3.08,2.33q3.07,2.32,6.09,4.74t6,4.85c1,.82,2,1.65,3,2.49s2,1.65,2.94,2.5,1.94,1.67,2.9,2.53,1.68,1.49,2.52,2.23l.71.64,2.51,2.28c1,.85,1.89,1.73,2.83,2.61s1.88,1.75,2.81,2.65q2.67,2.52,5.29,5.12c.08.09.16.16.24.24.91.9,1.82,1.82,2.72,2.73l2.7,2.75c.91.92,1.8,1.85,2.67,2.78s1.78,1.86,2.64,2.8,1.63,1.74,2.41,2.61c1.15,1.24,2.29,2.5,3.41,3.76.57.63,1.13,1.27,1.69,1.9l.73.83,2,2.31c1.71,2,3.4,4,5.08,6s3.22,3.94,4.81,5.93c.68.86,1.37,1.72,2,2.59,1,1.26,2,2.54,3,3.82l2.07,2.75c.72,1,1.44,1.93,2.15,2.9l.37.5c.69.94,1.37,1.88,2,2.83s1.5,2.09,2.24,3.15q6.09,8.66,11.7,17.65c.51.8,1,1.6,1.5,2.41s.88,1.43,1.31,2.15q1.86,3,3.64,6.14c.48.82,1,1.64,1.42,2.46q3.73,6.51,7.21,13.19l1.65,3.21c.53,1,1,2.06,1.56,3.1l1,2.06c.44.89.88,1.79,1.31,2.69.55,1.14,1.09,2.3,1.63,3.45.12.23.22.46.32.69.48,1,1,2,1.4,3q1.06,2.3,2.08,4.62c.58,1.32,1.16,2.66,1.73,4q2,4.65,3.86,9.38c.37.92.72,1.83,1.08,2.75.51,1.31,1,2.62,1.5,3.94a3.75,3.75,0,0,1,.16.43c.48,1.27,1,2.55,1.41,3.83s.94,2.61,1.4,3.93c0,.11.08.22.11.33.44,1.24.87,2.5,1.29,3.75q2.16,6.38,4.08,12.85c.36,1.17.7,2.35,1,3.52,0,.1.06.2.08.3A45,45,0,0,1,842.06,462Z"/><path class="cls-2" d="M512.31,511.16l-.6,1.67h0C511.9,512.29,512.11,511.73,512.31,511.16Z"/><path class="cls-2" d="M512.56,510.09c0,.1-.05.2-.08.3-.34,1.17-.68,2.35-1,3.52C511.82,512.64,512.19,511.36,512.56,510.09Z"/><path class="cls-3" d="M512.56,513.91c-.37-1.27-.74-2.55-1.12-3.82.36,1.17.7,2.35,1,3.52C512.51,513.71,512.54,513.81,512.56,513.91Z"/><path class="cls-3" d="M877.29,634.74h0l.6-1.67C877.7,633.63,877.5,634.19,877.29,634.74Zm7.49-22.53c.36-1.17.7-2.35,1-3.52,0-.1.06-.2.08-.3C885.53,609.65,885.16,610.94,884.78,612.2Zm1-219.42c-.34-1.17-.68-2.35-1-3.52.38,1.27.75,2.55,1.12,3.82C885.88,393,885.85,392.88,885.82,392.79ZM146.1,633.06l.6,1.67h0C146.5,634.19,146.3,633.63,146.1,633.06Zm-7.92-240.28c0,.1-.06.2-.08.3.37-1.27.74-2.55,1.12-3.82C138.86,390.44,138.52,391.62,138.18,392.79Zm-.08,215.6c0,.1.05.2.08.3.34,1.17.68,2.35,1,3.52C138.84,610.94,138.47,609.65,138.1,608.38Z"/><path class="cls-3" d="M512.56,513.91c-.37-1.27-.74-2.55-1.12-3.82.36,1.17.7,2.35,1,3.52C512.51,513.71,512.54,513.81,512.56,513.91Z"/><path class="cls-4" d="M512.31,511.16l-.6,1.67h0C511.9,512.29,512.11,511.73,512.31,511.16Z"/><path class="cls-4" d="M512.56,510.09c0,.1-.05.2-.08.3-.34,1.17-.68,2.35-1,3.52C511.82,512.64,512.19,511.36,512.56,510.09Z"/></svg>