<svg version="1" xmlns="http://www.w3.org/2000/svg" width="2730.667" height="2730.667" viewBox="0 0 2048.000000 2048.000000"><path d="M974.5 96.1C790 106.4 614.8 170.2 468.2 280.5c-38.6 29-63.7 50.9-99.3 86.4-35.5 35.6-57.4 60.7-86.4 99.3C182 599.8 120.2 756.6 102.1 924c-3.9 36.3-4.6 50.6-4.6 99 0 49.9.7 63.3 5.1 103 14.6 132 57.6 259.7 125.5 373.2 107.2 179.1 274.7 319.3 468.4 392.1 107.3 40.2 214.2 59.7 328.5 59.7 184.4 0 359.4-52.7 513-154.5 229.1-151.9 379.2-397.7 409.4-670.5 4.4-39.7 5.1-53.1 5.1-103 0-48.4-.7-62.7-4.6-99-18.1-167.4-79.9-324.2-180.4-457.8-29-38.6-50.9-63.7-86.4-99.3-35.6-35.5-60.7-57.4-99.3-86.4-147.5-111-322.3-174.4-508.8-184.5-21-1.1-77.5-1.1-98.5.1zm83 758.9c23.8 5.1 47.7 15.4 66.5 28.8 5.2 3.7 14.9 12.1 21.5 18.7s15 16.3 18.7 21.5c13.5 18.9 23.6 42.5 28.9 67 2 9.2 2.3 13.4 2.3 33s-.3 23.8-2.3 33c-5.3 24.5-15.4 48.1-28.9 67-8.6 12.2-28 31.6-40.2 40.2-18.9 13.5-42.5 23.6-67 28.9-9.2 2-13.4 2.3-33 2.3s-23.8-.3-33-2.3c-24.5-5.3-48.1-15.4-67-28.9-12.2-8.6-31.6-28-40.2-40.2-13.5-18.9-23.6-42.5-28.9-67-2-9.2-2.3-13.4-2.3-33s.3-23.8 2.3-33c5.3-24.5 15.4-48.1 28.9-67 8.6-12.2 28.1-31.6 40.2-40.2 22.4-15.9 50.8-27.1 78-30.8 11.6-1.6 44.2-.4 55.5 2zM789 1138.7c37.7 78.6 112 132 201.5 144.9 16.5 2.4 50.5 2.4 67 0 49.3-7.1 92.9-25.7 130.5-55.6 29.2-23.3 54.7-55.3 71-89.3l6.5-13.6 218 .2 218 .2 7.3 2.3c31.1 9.6 52.9 30.9 62.8 61.2 2.6 7.9 2.8 9.7 2.8 25 .1 19.2-.1 20.4-11.9 55.7-33.4 100.4-86.2 191.5-157.3 271.8-14.8 16.7-47 48.9-63.7 63.7-118.7 105.2-262.8 170.9-418.5 190.7-37.2 4.8-50.5 5.5-99 5.5s-61.8-.7-99-5.5c-155.7-19.8-299.8-85.5-418.5-190.7-16.7-14.8-48.9-47-63.7-63.7-71.1-80.3-123.9-171.4-157.3-271.8-11.8-35.3-12-36.5-11.9-55.7 0-15.3.2-17.1 2.8-25 10.6-32.5 35.8-55.4 68.6-62.4 5.4-1.2 41.6-1.4 222-1.5h215.5l6.5 13.6z"/></svg>